<svg width="18.000000" height="18.000000" viewBox="0 0 18 18" fill="none" xmlns="http://www.w3.org/2000/svg" xmlns:xlink="http://www.w3.org/1999/xlink">
	<desc>
			Created with Pixso.
	</desc>
	<defs/>
	<path id="instagram" d="M4.2 0C1.88 0 0 1.88 0 4.19L0 13.8C0 16.11 1.88 18 4.2 18L13.8 18C16.11 18 18 16.11 18 13.8L18 4.19C18 1.88 16.11 0 13.8 0L4.2 0ZM13.63 5.4C14.3 5.4 14.83 4.86 14.83 4.2C14.83 3.53 14.3 3 13.63 3C12.97 3 12.43 3.53 12.43 4.2C12.43 4.86 12.97 5.4 13.63 5.4ZM8.99 13.49C11.48 13.49 13.49 11.47 13.49 8.99C13.49 6.5 11.48 4.49 8.99 4.49C6.51 4.49 4.49 6.5 4.49 8.99C4.49 11.47 6.51 13.49 8.99 13.49ZM8.99 11.39C10.32 11.39 11.39 10.31 11.39 8.99C11.39 7.66 10.32 6.59 8.99 6.59C7.67 6.59 6.59 7.66 6.59 8.99C6.59 10.31 7.67 11.39 8.99 11.39Z" fill="#FFFCFA" fill-opacity="1.000000" fill-rule="evenodd"/>
</svg>
