<svg width="170.000000" height="51.000000" viewBox="0 0 170 51" fill="none" xmlns="http://www.w3.org/2000/svg" xmlns:xlink="http://www.w3.org/1999/xlink">
	<desc>
			Created with Pixso.
	</desc>
	<defs/>
	<path id="logotype" d="M116.45 2.55C116.45 1.84 116.7 1.23 117.19 0.74C117.69 0.24 118.3 0 119.01 0C119.72 0 120.33 0.24 120.83 0.74C121.32 1.23 121.57 1.84 121.57 2.55C121.57 3.26 121.32 3.86 120.83 4.36C120.33 4.85 119.72 5.1 119.01 5.1C118.3 5.1 117.69 4.85 117.19 4.36C116.7 3.86 116.45 3.26 116.45 2.55ZM0.25 10.94Q0.25 8.26 0.19 6.2Q0.12 4.1 0 2C0.36 2.04 0.76 2.08 1.2 2.13Q1.84 2.16 2.65 2.16Q4.05 2.16 5.57 2.09Q7.1 2 8.49 2Q9.95 2 11.15 2.29C11.95 2.48 12.64 2.78 13.23 3.19Q13.61 3.45 13.92 3.78Q14.3 4.2 14.56 4.74Q15.04 5.68 15.04 7Q15.04 8.33 14.49 9.3Q14.02 10.09 13.37 10.68L13.37 10.68Q13.25 10.78 13.13 10.88C12.61 11.29 12.04 11.61 11.41 11.85Q10.5 12.2 9.76 12.33L9.76 12.4C10.26 12.42 10.84 12.54 11.51 12.75C12.18 12.95 12.82 13.26 13.42 13.69Q13.48 13.73 13.53 13.77L13.54 13.77Q14.37 14.4 14.95 15.37Q15.6 16.37 15.6 17.82C15.6 18.99 15.38 19.98 14.95 20.8C14.54 21.61 13.97 22.28 13.26 22.8C12.57 23.32 11.77 23.68 10.86 23.9C9.95 24.09 9.01 24.19 8.04 24.19Q6.74 24.19 5.61 24.16C4.87 24.13 4.09 24.12 3.27 24.12L1.45 24.12C0.85 24.12 0.36 24.14 0 24.19Q0.12 22.19 0.19 20.12Q0.25 18.02 0.25 15.34L0.25 10.94ZM73.54 14.01L73.54 15.34C73.54 17.12 73.56 18.72 73.6 20.12Q73.67 22.19 73.8 24.19C73.43 24.14 73.03 24.12 72.6 24.12L69.68 24.12C69.24 24.12 68.84 24.14 68.48 24.19C68.56 22.85 68.63 21.5 68.67 20.12C68.71 18.72 68.74 17.12 68.74 15.34L68.74 10.94C68.74 9.16 68.71 7.57 68.67 6.2C68.63 4.8 68.56 3.4 68.48 2C68.84 2.04 69.24 2.08 69.68 2.13C70.11 2.15 70.6 2.16 71.14 2.16C71.72 2.16 72.38 2.14 73.11 2.09C73.87 2.03 74.8 2 75.9 2C76.73 2 77.43 2.02 78.01 2.06C78.6 2.11 79.09 2.17 79.5 2.26C79.94 2.34 80.3 2.46 80.61 2.61C80.93 2.74 81.23 2.9 81.52 3.1C82.16 3.57 82.67 4.16 83.04 4.87C83.43 5.56 83.62 6.39 83.62 7.36C83.62 8.93 83.19 10.21 82.33 11.2C81.46 12.19 80.22 12.89 78.6 13.3C79.63 15.13 80.75 16.96 81.94 18.79C83.13 20.6 84.32 22.4 85.5 24.19C85.01 24.14 84.52 24.12 84.05 24.12L81.09 24.12C80.62 24.12 80.13 24.14 79.63 24.19L73.83 14.01L73.54 14.01ZM56.27 8.81Q56.17 9.3 56.17 9.69C56.17 9.96 56.21 10.23 56.27 10.49L53.42 10.43Q53.35 11.17 53.29 12.14C53.26 12.79 53.24 13.44 53.22 14.11C53.22 14.78 53.21 15.42 53.19 16.05L53.19 17.63C53.19 18.75 53.21 19.66 53.25 20.34C53.32 21.03 53.42 21.56 53.55 21.93C53.68 22.29 53.86 22.54 54.1 22.67C54.33 22.8 54.64 22.86 55.01 22.86C55.42 22.86 55.72 22.84 55.91 22.8C56.11 22.73 56.3 22.65 56.5 22.54L56.5 23.86C56.06 24.06 55.52 24.23 54.88 24.38C54.23 24.53 53.59 24.61 52.96 24.61C50.22 24.61 48.84 22.97 48.84 19.7C48.84 19.07 48.85 18.37 48.87 17.6Q48.91 16.4 48.94 15.18Q49 13.92 49.04 12.72C49.06 11.9 49.07 11.15 49.07 10.46L46.8 10.49C46.86 10.23 46.9 9.96 46.9 9.69C46.9 9.43 46.86 9.14 46.8 8.81L49.07 8.91C49.07 8.24 49.06 7.62 49.04 7.04Q49 6.16 48.94 4.94C49.7 4.64 50.44 4.32 51.18 4C51.91 3.66 52.65 3.3 53.38 2.93L53.71 3.16C53.66 3.5 53.62 3.91 53.58 4.39C53.56 4.84 53.52 5.32 53.48 5.84C53.46 6.34 53.44 6.85 53.42 7.39L53.42 8.88L56.27 8.81ZM10.24 7.62C10.24 7.1 10.18 6.62 10.05 6.16C9.94 5.69 9.75 5.29 9.47 4.97C9.18 4.62 8.83 4.36 8.4 4.16Q7.75 3.84 6.77 3.84C6.3 3.84 5.96 3.85 5.77 3.87C5.6 3.87 5.4 3.89 5.18 3.94C5.14 4.73 5.11 5.54 5.09 6.36Q5.05 7.59 5.05 8.43L5.05 10.1Q5.09 10.88 5.09 11.72L5.09 11.72L6.55 11.72Q6.77 11.72 6.99 11.69Q7.44 11.64 7.88 11.46C8.33 11.29 8.73 11.04 9.08 10.72C9.42 10.37 9.7 9.94 9.92 9.43Q10.24 8.65 10.24 7.62ZM78.66 8.07C78.66 7.12 78.56 6.37 78.37 5.81C78.17 5.25 77.87 4.83 77.46 4.55C77.07 4.25 76.55 4.05 75.9 3.97C75.28 3.88 74.52 3.84 73.63 3.84C73.57 6.77 73.54 9.7 73.54 12.62C73.67 12.65 73.78 12.67 73.89 12.69L74.25 12.69Q76.26 12.69 77.39 11.69Q77.46 11.63 77.53 11.56Q78.66 10.4 78.66 8.07ZM23.07 16.47C23.07 17.33 23.15 18.14 23.33 18.89C23.5 19.64 23.76 20.3 24.11 20.86C24.47 21.4 24.93 21.83 25.47 22.15C26.03 22.45 26.68 22.61 27.41 22.61C28.91 22.61 30.24 22.12 31.4 21.15L31.79 21.44L31.08 23.25C30.54 23.66 29.89 23.98 29.13 24.22Q28 24.61 26.15 24.61C25.09 24.61 24.08 24.46 23.13 24.16C22.18 23.88 21.34 23.4 20.6 22.73C19.89 22.07 19.32 21.23 18.88 20.21Q18.27 18.66 18.27 16.53C18.27 15.13 18.45 13.92 18.82 12.88C19.21 11.85 19.74 10.99 20.41 10.3C21.08 9.61 21.87 9.09 22.78 8.75C23.71 8.4 24.71 8.23 25.79 8.23C27.93 8.23 29.56 8.86 30.69 10.1C31.84 11.35 32.41 13.12 32.41 15.4L32.41 16.08C32.41 16.27 32.4 16.4 32.38 16.47L23.07 16.47ZM35.65 20.21C35.78 20.56 35.94 20.89 36.14 21.22C36.35 21.52 36.61 21.8 36.92 22.06C37.22 22.29 37.58 22.49 37.99 22.64C38.42 22.79 38.92 22.86 39.48 22.86C40.24 22.86 40.82 22.67 41.23 22.28C41.64 21.89 41.85 21.47 41.85 21.02C41.85 20.53 41.66 20.13 41.3 19.83C40.93 19.53 40.46 19.26 39.9 19.02C39.36 18.76 38.77 18.5 38.12 18.24C37.47 17.99 36.86 17.66 36.3 17.28C35.76 16.87 35.31 16.36 34.94 15.76Q34.39 14.85 34.39 13.43C34.39 12.53 34.55 11.75 34.87 11.11C35.22 10.44 35.66 9.9 36.2 9.49C36.74 9.06 37.35 8.75 38.02 8.55C38.71 8.34 39.39 8.23 40.06 8.23C40.97 8.23 41.77 8.36 42.46 8.62C43.18 8.88 43.9 9.25 44.64 9.75C44.44 10.18 44.28 10.64 44.15 11.14C44.02 11.63 43.92 12.12 43.86 12.59L42.95 12.59C42.89 12.33 42.78 12.05 42.63 11.75C42.47 11.43 42.27 11.13 42.01 10.85C41.75 10.57 41.44 10.34 41.07 10.17C40.7 9.98 40.26 9.88 39.74 9.88Q38.95 9.88 38.36 10.21Q38.22 10.3 38.08 10.4C37.65 10.74 37.44 11.19 37.44 11.75C37.44 12.27 37.62 12.69 37.99 13.01C38.38 13.31 38.85 13.58 39.41 13.82C39.98 14.06 40.59 14.29 41.26 14.53C41.93 14.77 42.55 15.08 43.11 15.47C43.67 15.83 44.14 16.32 44.51 16.92C44.9 17.52 45.09 18.3 45.09 19.25C45.09 20.19 44.92 21.01 44.57 21.7C44.23 22.37 43.76 22.93 43.18 23.38C42.59 23.81 41.92 24.12 41.17 24.32C40.43 24.51 39.65 24.61 38.83 24.61C37.86 24.61 36.98 24.47 36.2 24.19Q35.04 23.77 34.35 23.32C34.61 22.28 34.78 21.25 34.84 20.21L35.65 20.21ZM91.55 16.47Q91.55 17.76 91.81 18.89C91.98 19.64 92.24 20.3 92.59 20.86C92.95 21.4 93.41 21.83 93.95 22.15C94.51 22.45 95.16 22.61 95.89 22.61C97.39 22.61 98.72 22.12 99.88 21.15L100.27 21.44L99.56 23.25C99.02 23.66 98.37 23.98 97.61 24.22C96.86 24.48 95.86 24.61 94.63 24.61C93.57 24.61 92.56 24.46 91.61 24.16C90.66 23.88 89.82 23.4 89.08 22.73C88.37 22.07 87.8 21.23 87.36 20.21Q86.75 18.66 86.75 16.53Q86.75 14.43 87.3 12.88C87.69 11.85 88.22 10.99 88.89 10.3C89.56 9.61 90.35 9.09 91.26 8.75C92.19 8.4 93.19 8.23 94.27 8.23C96.41 8.23 98.05 8.86 99.17 10.1L99.18 10.12Q99.19 10.13 99.2 10.14Q100.89 12.01 100.89 15.4L100.89 16.08C100.89 16.27 100.88 16.4 100.86 16.47L91.55 16.47ZM104.13 20.21C104.26 20.56 104.43 20.89 104.62 21.22C104.84 21.52 105.1 21.8 105.4 22.06C105.7 22.29 106.06 22.49 106.47 22.64C106.9 22.79 107.4 22.86 107.96 22.86C108.72 22.86 109.3 22.67 109.71 22.28C110.12 21.89 110.33 21.47 110.33 21.02C110.33 20.53 110.15 20.13 109.78 19.83C109.41 19.53 108.95 19.26 108.38 19.02C107.84 18.76 107.25 18.5 106.6 18.24C105.95 17.99 105.34 17.66 104.78 17.28C104.24 16.87 103.79 16.36 103.42 15.76Q102.87 14.85 102.87 13.43C102.87 12.53 103.03 11.75 103.36 11.11C103.7 10.44 104.14 9.9 104.69 9.49C105.23 9.06 105.83 8.75 106.5 8.55C107.19 8.34 107.87 8.23 108.55 8.23C109.45 8.23 110.25 8.36 110.95 8.62Q112.02 9.01 113.12 9.75C112.92 10.18 112.76 10.64 112.63 11.14Q112.44 11.88 112.34 12.59L111.43 12.59C111.37 12.33 111.26 12.05 111.11 11.75C110.96 11.43 110.75 11.13 110.49 10.85C110.23 10.57 109.92 10.34 109.55 10.17C109.18 9.98 108.74 9.88 108.22 9.88Q107.44 9.88 106.84 10.21L106.84 10.22Q106.7 10.3 106.57 10.4C106.13 10.74 105.92 11.19 105.92 11.75C105.92 12.27 106.1 12.69 106.47 13.01C106.86 13.31 107.33 13.58 107.9 13.82C108.46 14.06 109.07 14.29 109.75 14.53C110.42 14.77 111.03 15.08 111.59 15.47C112.16 15.83 112.62 16.32 112.99 16.92C113.38 17.52 113.57 18.3 113.57 19.25C113.57 20.19 113.4 21.01 113.05 21.7C112.71 22.37 112.24 22.93 111.66 23.38C111.07 23.81 110.4 24.12 109.65 24.32C108.91 24.51 108.13 24.61 107.31 24.61C106.34 24.61 105.46 24.47 104.69 24.19Q103.52 23.77 102.84 23.32C103.1 22.28 103.26 21.25 103.32 20.21L104.13 20.21ZM125.51 19.83C125.51 17.72 125.49 15.78 125.44 14.01C125.4 12.25 125.34 10.46 125.25 8.65Q125.8 8.72 126.38 8.78C126.77 8.8 127.15 8.81 127.52 8.81C127.89 8.81 128.25 8.8 128.62 8.78C129.01 8.74 129.39 8.69 129.76 8.65C129.71 9.02 129.66 9.46 129.6 9.98C129.55 10.47 129.53 10.96 129.53 11.43L129.6 11.43C129.9 10.52 130.45 9.77 131.25 9.17Q131.47 9 131.71 8.86Q132.77 8.23 134.2 8.23C135.02 8.23 135.81 8.38 136.57 8.68C137.33 8.99 138 9.46 138.58 10.1C139.16 10.75 139.63 11.58 139.97 12.59Q140.49 14.11 140.49 16.21C140.49 17.74 140.31 19.04 139.94 20.12Q139.39 21.73 138.48 22.77C137.9 23.43 137.22 23.91 136.44 24.19C135.68 24.47 134.9 24.61 134.1 24.61C133.13 24.61 132.29 24.42 131.57 24.06C130.86 23.69 130.31 23.12 129.92 22.35L129.85 22.35L129.85 27.26Q129.89 28.45 129.92 29.52C129.94 30.23 129.96 30.86 129.98 31.42C130.03 31.98 130.07 32.4 130.11 32.68C129.83 32.64 129.48 32.6 129.04 32.55C128.61 32.53 128.16 32.52 127.68 32.52C127.21 32.52 126.75 32.53 126.32 32.55C125.89 32.6 125.53 32.64 125.25 32.68C125.29 31.78 125.32 30.88 125.35 30C125.39 29.12 125.42 28.23 125.44 27.32C125.47 26.42 125.48 25.5 125.48 24.58C125.5 23.65 125.51 22.66 125.51 21.6L125.51 19.83ZM147.42 16.47C147.42 17.33 147.51 18.14 147.68 18.89C147.86 19.64 148.12 20.3 148.46 20.86C148.83 21.4 149.28 21.83 149.82 22.15C150.39 22.45 151.03 22.61 151.77 22.61C153.26 22.61 154.59 22.12 155.76 21.15L156.15 21.44L155.44 23.25C154.89 23.66 154.25 23.98 153.49 24.22C152.73 24.48 151.74 24.61 150.5 24.61C149.45 24.61 148.44 24.46 147.49 24.16C146.54 23.88 145.69 23.4 144.96 22.73C144.25 22.07 143.67 21.23 143.24 20.21C142.83 19.18 142.62 17.95 142.62 16.53C142.62 15.13 142.81 13.92 143.17 12.88C143.56 11.85 144.09 10.99 144.76 10.3C145.43 9.61 146.22 9.09 147.13 8.75C148.06 8.4 149.07 8.23 150.15 8.23C152.29 8.23 153.92 8.86 155.05 10.1C156.19 11.35 156.77 13.12 156.77 15.4L156.77 16.08C156.77 16.27 156.75 16.4 156.73 16.47L147.42 16.47ZM160.01 20.21C160.14 20.56 160.3 20.89 160.5 21.22C160.71 21.52 160.97 21.8 161.27 22.06C161.58 22.29 161.93 22.49 162.34 22.64C162.78 22.79 163.27 22.86 163.84 22.86C164.59 22.86 165.18 22.67 165.59 22.28C166 21.89 166.2 21.47 166.2 21.02C166.2 20.53 166.02 20.13 165.65 19.83C165.28 19.53 164.82 19.26 164.26 19.02C163.72 18.76 163.12 18.5 162.47 18.24C161.82 17.99 161.22 17.66 160.66 17.28C160.12 16.87 159.66 16.36 159.29 15.76C158.93 15.15 158.74 14.38 158.74 13.43C158.74 12.53 158.91 11.75 159.23 11.11C159.58 10.44 160.02 9.9 160.56 9.49C161.1 9.06 161.71 8.75 162.38 8.55C163.07 8.34 163.75 8.23 164.42 8.23C165.33 8.23 166.13 8.36 166.82 8.62C167.53 8.88 168.26 9.25 168.99 9.75C168.8 10.18 168.64 10.64 168.51 11.14C168.38 11.63 168.28 12.12 168.21 12.59L167.31 12.59C167.24 12.33 167.13 12.05 166.98 11.75C166.83 11.43 166.63 11.13 166.37 10.85C166.11 10.57 165.79 10.34 165.43 10.17C165.06 9.98 164.61 9.88 164.1 9.88C163.45 9.88 162.89 10.05 162.44 10.4Q162.13 10.65 161.97 10.97Q161.79 11.32 161.79 11.75C161.79 12.27 161.98 12.69 162.34 13.01C162.73 13.31 163.21 13.58 163.77 13.82Q164.61 14.17 165.62 14.53C166.29 14.77 166.91 15.08 167.47 15.47C168.03 15.83 168.5 16.32 168.86 16.92C169.25 17.52 169.45 18.3 169.45 19.25C169.45 20.19 169.27 21.01 168.93 21.7C168.58 22.37 168.12 22.93 167.53 23.38C166.95 23.81 166.28 24.12 165.52 24.32C164.79 24.51 164.01 24.61 163.19 24.61Q161.73 24.61 160.56 24.19Q159.39 23.77 158.71 23.32C158.97 22.28 159.13 21.25 159.2 20.21L160.01 20.21ZM116.84 15.82C116.84 14.51 116.82 13.28 116.77 12.14C116.75 10.98 116.69 9.81 116.58 8.65C116.88 8.69 117.24 8.74 117.65 8.78C118.06 8.8 118.51 8.81 119.01 8.81C120.03 8.81 120.84 8.76 121.44 8.65C121.34 9.81 121.26 10.98 121.22 12.14C121.19 13.28 121.18 14.51 121.18 15.82L121.18 17.11C121.18 18.43 121.19 19.67 121.22 20.83C121.26 21.99 121.34 23.11 121.44 24.19C121.16 24.14 120.81 24.12 120.37 24.12L117.65 24.12C117.24 24.12 116.88 24.14 116.58 24.19C116.69 23.11 116.75 21.99 116.77 20.83C116.82 19.67 116.84 18.43 116.84 17.11L116.84 15.82ZM28.06 15.01C28.02 13.4 27.81 12.11 27.45 11.14C27.1 10.17 26.51 9.69 25.66 9.69C25.19 9.69 24.79 9.85 24.46 10.17Q23.98 10.65 23.68 11.43C23.49 11.92 23.34 12.5 23.23 13.14C23.14 13.77 23.09 14.39 23.07 15.01L28.06 15.01ZM96.54 15.01C96.5 13.4 96.29 12.11 95.93 11.14C95.58 10.17 94.99 9.69 94.14 9.69C93.67 9.69 93.27 9.85 92.94 10.17C92.62 10.49 92.36 10.91 92.16 11.43C91.97 11.92 91.82 12.5 91.71 13.14C91.62 13.77 91.57 14.39 91.55 15.01L96.54 15.01ZM152.42 15.01C152.38 13.4 152.17 12.11 151.8 11.14C151.46 10.17 150.86 9.69 150.02 9.69C149.54 9.69 149.14 9.85 148.82 10.17C148.49 10.49 148.23 10.91 148.04 11.43C147.85 11.92 147.69 12.5 147.59 13.14C147.5 13.77 147.45 14.39 147.42 15.01L152.42 15.01ZM135.69 16.31Q135.69 13.11 134.88 11.69C134.36 10.72 133.67 10.23 132.81 10.23C132.39 10.23 132.01 10.35 131.64 10.59C131.27 10.83 130.94 11.2 130.63 11.72C130.35 12.24 130.13 12.92 129.95 13.75C129.78 14.59 129.69 15.62 129.69 16.82Q129.69 19.76 130.44 21.18C130.96 22.11 131.7 22.57 132.68 22.57C133.61 22.57 134.34 22.07 134.88 21.05Q135.69 19.54 135.69 16.31ZM10.47 18.05C10.47 16.54 10.13 15.42 9.43 14.69Q9.28 14.52 9.1 14.37Q8.13 13.56 6.48 13.56C6.18 13.56 5.92 13.57 5.7 13.59L5.09 13.59C5.09 14.05 5.08 14.52 5.05 15.01L5.05 18.31C5.08 18.85 5.09 19.38 5.09 19.89L5.09 21.31C5.11 21.74 5.12 22.1 5.12 22.38C5.42 22.4 5.7 22.42 5.96 22.44L6.9 22.44C7.38 22.44 7.83 22.35 8.27 22.15C8.7 21.96 9.08 21.68 9.4 21.31C9.73 20.93 9.99 20.46 10.18 19.92Q10.47 19.12 10.47 18.05ZM101.25 48.12C100.1 48.12 99.23 47.76 98.64 47.05C98.06 46.34 97.76 45.37 97.76 44.15C97.76 43.24 97.83 42.48 97.97 41.86C98.12 41.24 98.33 40.72 98.61 40.32C98.9 39.91 99.25 39.57 99.66 39.32C100.07 39.06 100.54 38.84 101.08 38.66L104.11 37.61L104.21 38.22L101.31 39.22C100.7 39.43 100.2 39.69 99.8 40C99.4 40.29 99.09 40.68 98.86 41.16C98.65 41.64 98.52 42.26 98.46 43.01Q98.67 42.5 99.02 42.13Q99.27 41.88 99.58 41.69C100.1 41.38 100.7 41.23 101.39 41.23C102.11 41.23 102.71 41.38 103.2 41.66C103.7 41.95 104.09 42.35 104.35 42.87C104.61 43.38 104.74 43.97 104.74 44.63C104.74 45.7 104.43 46.55 103.83 47.18C103.23 47.81 102.38 48.12 101.25 48.12ZM117.68 39.76C117.09 39.76 116.62 39.62 116.27 39.34C115.94 39.06 115.77 38.7 115.77 38.26L116.3 38.26C116.3 38.57 116.42 38.82 116.65 39.01C116.89 39.2 117.24 39.3 117.68 39.3C118.13 39.3 118.46 39.21 118.69 39.02C118.92 38.83 119.04 38.57 119.06 38.26L119.59 38.26C119.59 38.7 119.42 39.06 119.08 39.34C118.74 39.62 118.28 39.76 117.68 39.76ZM166.97 39.76C166.37 39.76 165.9 39.62 165.56 39.34C165.23 39.06 165.06 38.7 165.06 38.26L165.59 38.26C165.59 38.57 165.7 38.82 165.94 39.01C166.18 39.2 166.52 39.3 166.97 39.3C167.42 39.3 167.75 39.21 167.97 39.02C168.21 38.83 168.33 38.57 168.35 38.26L168.88 38.26C168.88 38.7 168.71 39.06 168.36 39.34C168.03 39.62 167.56 39.76 166.97 39.76ZM3.99 48.12C3.37 48.12 2.81 47.96 2.32 47.63Q1.73 47.23 1.33 46.69Q1.23 46.56 1.15 46.43L1.15 50.94L0.45 50.94L0.45 40.76L1.09 40.76L1.09 42.2C1.39 41.74 1.78 41.37 2.27 41.08C2.77 40.78 3.29 40.63 3.84 40.63C4.34 40.63 4.8 40.74 5.22 40.95C5.64 41.16 6.01 41.44 6.32 41.8C6.64 42.15 6.88 42.55 7.04 43C7.22 43.44 7.31 43.9 7.31 44.38C7.31 45.05 7.17 45.67 6.89 46.25C6.61 46.81 6.22 47.26 5.72 47.61C5.23 47.95 4.65 48.12 3.99 48.12ZM12.07 48.12C11.39 48.12 10.78 47.95 10.23 47.61C9.69 47.26 9.26 46.81 8.94 46.23C8.64 45.66 8.48 45.03 8.48 44.34C8.48 43.67 8.64 43.05 8.94 42.5C9.25 41.93 9.67 41.48 10.21 41.15C10.75 40.81 11.36 40.63 12.03 40.63C12.72 40.63 13.32 40.81 13.85 41.15C14.39 41.48 14.82 41.93 15.12 42.5C15.43 43.06 15.58 43.68 15.58 44.34C15.58 44.45 15.58 44.56 15.57 44.65L9.21 44.65C9.25 45.2 9.4 45.7 9.67 46.15C9.94 46.58 10.28 46.93 10.7 47.19C11.13 47.44 11.59 47.56 12.1 47.56C12.6 47.56 13.07 47.44 13.52 47.18C13.97 46.92 14.28 46.58 14.45 46.18L15.07 46.34C14.93 46.69 14.7 46.99 14.4 47.26C14.1 47.53 13.75 47.74 13.34 47.9C12.94 48.05 12.52 48.12 12.07 48.12ZM28.18 48.12C27.5 48.12 26.89 47.95 26.34 47.61C25.8 47.26 25.37 46.81 25.06 46.23C24.75 45.66 24.6 45.03 24.6 44.34C24.6 43.67 24.75 43.05 25.06 42.5C25.36 41.93 25.79 41.48 26.33 41.15C26.86 40.81 27.47 40.63 28.14 40.63C28.83 40.63 29.44 40.81 29.97 41.15C30.5 41.48 30.93 41.93 31.23 42.5C31.54 43.06 31.69 43.68 31.69 44.34C31.69 44.45 31.69 44.56 31.68 44.65L25.32 44.65C25.36 45.2 25.51 45.7 25.78 46.15C26.05 46.58 26.39 46.93 26.81 47.19C27.24 47.44 27.71 47.56 28.21 47.56C28.71 47.56 29.18 47.44 29.63 47.18C30.08 46.92 30.39 46.58 30.56 46.18L31.18 46.34C31.04 46.69 30.82 46.99 30.51 47.26C30.21 47.53 29.86 47.74 29.45 47.9Q29.37 47.93 29.28 47.96Q28.76 48.12 28.18 48.12ZM67.85 45.9C67.85 45.47 67.97 45.1 68.22 44.77C68.48 44.45 68.84 44.2 69.3 44.02C69.76 43.84 70.29 43.75 70.89 43.75C71.26 43.75 71.65 43.78 72.04 43.84C72.45 43.91 72.81 44 73.12 44.11L73.12 43.43C73.12 42.76 72.92 42.23 72.53 41.83C72.14 41.43 71.61 41.23 70.94 41.23C70.58 41.23 70.2 41.31 69.81 41.45C69.42 41.6 69.02 41.82 68.61 42.09L68.32 41.59C69.27 40.95 70.17 40.63 71.01 40.63C71.87 40.63 72.55 40.89 73.05 41.4C73.56 41.91 73.82 42.6 73.82 43.48L73.82 47.06C73.82 47.29 73.92 47.4 74.12 47.41L74.12 47.98C73.95 48 73.83 48 73.77 48C73.6 47.98 73.46 47.9 73.36 47.77C73.26 47.64 73.21 47.51 73.2 47.37L73.2 46.8C72.87 47.22 72.44 47.54 71.91 47.77C71.38 48 70.84 48.12 70.26 48.12C69.8 48.12 69.39 48.02 69.02 47.83C68.66 47.62 68.37 47.36 68.15 47.02C67.95 46.69 67.85 46.31 67.85 45.9ZM92.89 48.12C92.25 48.12 91.69 47.98 91.2 47.69C90.72 47.39 90.33 46.99 90.04 46.47C89.76 45.95 89.6 45.35 89.57 44.68L88.03 44.68L88.03 47.98L87.34 47.98L87.34 40.76L88.03 40.76L88.03 44.07L89.57 44.07C89.61 43.37 89.78 42.77 90.07 42.26C90.37 41.75 90.76 41.35 91.24 41.07C91.73 40.78 92.28 40.63 92.89 40.63C93.58 40.63 94.19 40.8 94.7 41.13C95.21 41.46 95.61 41.9 95.89 42.47C96.17 43.03 96.32 43.67 96.32 44.38C96.32 45.13 96.17 45.78 95.87 46.34C95.58 46.9 95.18 47.33 94.66 47.65C94.15 47.96 93.56 48.12 92.89 48.12ZM109.44 48.12C108.76 48.12 108.16 47.95 107.62 47.61C107.09 47.26 106.67 46.81 106.36 46.25C106.05 45.68 105.9 45.06 105.9 44.38C105.9 43.88 105.99 43.4 106.17 42.95C106.34 42.5 106.59 42.1 106.92 41.76C107.24 41.41 107.62 41.13 108.05 40.94C108.48 40.74 108.94 40.63 109.44 40.63C109.95 40.63 110.41 40.74 110.84 40.94C111.27 41.13 111.64 41.41 111.95 41.76C112.28 42.1 112.53 42.5 112.71 42.95Q112.75 43.05 112.78 43.15L112.78 43.15Q112.99 43.73 112.99 44.38C112.99 45.06 112.83 45.68 112.51 46.25C112.2 46.81 111.78 47.26 111.24 47.61C110.71 47.95 110.11 48.12 109.44 48.12ZM129.53 48.12C128.85 48.12 128.24 47.95 127.71 47.61C127.17 47.26 126.74 46.81 126.42 46.23C126.11 45.66 125.95 45.03 125.95 44.34C125.95 43.66 126.1 43.04 126.41 42.48C126.72 41.92 127.14 41.47 127.68 41.13C128.22 40.8 128.83 40.63 129.52 40.63C130.18 40.63 130.76 40.79 131.26 41.09C131.76 41.39 132.14 41.8 132.39 42.32L131.71 42.54C131.49 42.14 131.19 41.83 130.79 41.61C130.4 41.38 129.96 41.26 129.49 41.26Q129 41.26 128.57 41.42L128.57 41.42Q128.3 41.52 128.05 41.68C127.63 41.94 127.28 42.31 127.02 42.77C126.77 43.24 126.65 43.76 126.65 44.34C126.65 44.93 126.78 45.46 127.04 45.94C127.3 46.41 127.64 46.79 128.07 47.08C128.5 47.36 128.98 47.5 129.5 47.5C129.84 47.5 130.16 47.44 130.48 47.31C130.81 47.19 131.08 47.02 131.32 46.81C131.56 46.61 131.72 46.39 131.79 46.16L132.47 46.36C132.35 46.7 132.14 47 131.85 47.27C131.56 47.53 131.22 47.74 130.82 47.9C130.42 48.05 129.99 48.12 129.53 48.12ZM155.85 45.9C155.85 45.47 155.98 45.1 156.23 44.77C156.49 44.45 156.85 44.2 157.3 44.02C157.77 43.84 158.3 43.75 158.89 43.75C159.27 43.75 159.65 43.78 160.05 43.84C160.46 43.91 160.82 44 161.12 44.11L161.12 43.43C161.12 42.76 160.93 42.23 160.54 41.83C160.15 41.43 159.62 41.23 158.95 41.23C158.59 41.23 158.21 41.31 157.82 41.45C157.43 41.6 157.03 41.82 156.62 42.09L156.33 41.59C157.28 40.95 158.17 40.63 159.02 40.63C159.87 40.63 160.55 40.89 161.05 41.4C161.57 41.91 161.82 42.6 161.82 43.48L161.82 47.06C161.82 47.29 161.92 47.4 162.13 47.41L162.13 47.98C161.95 48 161.84 48 161.78 48C161.6 47.98 161.46 47.9 161.36 47.77C161.27 47.64 161.22 47.51 161.21 47.37L161.21 46.8C160.87 47.22 160.44 47.54 159.91 47.77C159.39 48 158.84 48.12 158.27 48.12C157.81 48.12 157.4 48.02 157.02 47.83C156.66 47.62 156.37 47.36 156.16 47.02C155.96 46.69 155.85 46.31 155.85 45.9ZM22.97 49.65L22.97 47.98L17.12 47.98L17.12 40.76L17.81 40.76L17.81 47.36L21.93 47.36L21.93 40.76L22.63 40.76L22.63 47.36L23.6 47.36L23.6 49.65L22.97 49.65ZM33.23 47.98L33.23 40.76L38.88 40.76L38.88 47.98L38.18 47.98L38.18 41.38L33.93 41.38L33.93 47.98L33.23 47.98ZM42.91 47.98L42.91 41.38L40.25 41.38L40.25 40.76L46.29 40.76L46.29 41.38L43.61 41.38L43.61 47.98L42.91 47.98ZM47.64 47.98L47.64 40.76L48.33 40.76L48.33 43.38L50.12 43.38C50.93 43.38 51.53 43.59 51.93 44.01C52.34 44.43 52.55 44.97 52.55 45.63C52.55 46.07 52.46 46.46 52.28 46.81C52.1 47.17 51.84 47.45 51.49 47.66C51.13 47.87 50.7 47.98 50.18 47.98L47.64 47.98ZM60.4 47.98L60.4 40.76L61.1 40.76L61.1 43.97L65.57 43.97L65.57 40.76L66.27 40.76L66.27 47.98L65.57 47.98L65.57 44.59L61.1 44.59L61.1 47.98L60.4 47.98ZM78.78 48.01L78.78 47.37C79.03 47.37 79.26 47.3 79.46 47.16C79.67 47.01 79.85 46.77 80.01 46.43C80.17 46.08 80.29 45.61 80.38 45.01C80.49 44.4 80.55 43.63 80.58 42.7L80.65 40.76L85.17 40.76L85.17 47.98L84.47 47.98L84.47 41.38L81.28 41.38L81.25 42.75C81.2 44.11 81.08 45.17 80.89 45.94C80.69 46.7 80.42 47.24 80.06 47.55C79.71 47.86 79.28 48.01 78.78 48.01ZM114.66 47.98L114.66 40.77L115.35 40.77L115.35 47.04L120.07 40.76L120.71 40.76L120.71 47.98L120.01 47.98L120.01 41.82L115.35 47.98L114.66 47.98ZM133.31 48.01L133.31 47.37Q133.52 47.37 133.7 47.31Q133.85 47.26 133.99 47.16C134.2 47.01 134.38 46.77 134.54 46.43C134.7 46.08 134.82 45.61 134.91 45.01C135.02 44.4 135.08 43.63 135.11 42.7L135.18 40.76L139.7 40.76L139.7 47.98L139 47.98L139 41.38L135.81 41.38L135.78 42.75C135.73 44.11 135.61 45.17 135.42 45.94C135.22 46.7 134.95 47.24 134.59 47.55C134.24 47.86 133.81 48.01 133.31 48.01ZM142.56 51C142.26 51 141.94 50.89 141.6 50.69L141.87 50.18C141.99 50.25 142.1 50.31 142.2 50.34C142.3 50.39 142.42 50.41 142.54 50.41C142.8 50.41 143.04 50.28 143.26 50.01C143.49 49.74 143.71 49.36 143.92 48.86L144.31 47.95L141.02 40.76L141.75 40.76L144.63 47.25L147.29 40.76L148 40.76L144.47 49.09C144.19 49.77 143.89 50.25 143.58 50.55C143.28 50.85 142.95 51 142.56 51ZM153.58 47.98L153.58 44.84C152.98 45.13 152.3 45.27 151.55 45.27C150.74 45.27 150.14 45.07 149.75 44.66C149.36 44.25 149.16 43.63 149.16 42.77L149.16 40.76L149.86 40.76L149.86 42.69C149.86 43.39 150 43.91 150.28 44.23C150.56 44.55 151.03 44.7 151.66 44.7C152.02 44.7 152.38 44.66 152.73 44.58C153.08 44.5 153.37 44.39 153.58 44.27L153.58 40.76L154.28 40.76L154.28 47.98L153.58 47.98ZM163.94 47.98L163.94 40.77L164.64 40.77L164.64 47.04L169.35 40.76L170 40.76L170 47.98L169.3 47.98L169.3 41.82L164.64 47.98L163.94 47.98ZM53.93 47.98L53.93 40.77L54.62 40.77L54.62 47.98L53.93 47.98ZM9.18 44.11L14.91 44.11C14.88 43.54 14.72 43.04 14.45 42.61C14.19 42.16 13.85 41.82 13.44 41.58Q13.23 41.45 13 41.37Q12.55 41.2 12.04 41.2C11.53 41.2 11.06 41.33 10.65 41.58C10.23 41.83 9.89 42.18 9.63 42.62C9.37 43.06 9.22 43.55 9.18 44.11ZM25.29 44.11L31.02 44.11C30.99 43.54 30.83 43.04 30.56 42.61C30.3 42.16 29.97 41.82 29.55 41.58C29.13 41.33 28.66 41.2 28.15 41.2C27.64 41.2 27.18 41.33 26.76 41.58C26.34 41.83 26 42.18 25.74 42.62C25.48 43.06 25.33 43.55 25.29 44.11ZM3.82 47.5C4.38 47.5 4.87 47.35 5.29 47.05Q5.58 46.84 5.81 46.57Q6.07 46.26 6.25 45.88C6.48 45.4 6.6 44.9 6.6 44.38C6.6 43.83 6.47 43.32 6.21 42.84C5.96 42.37 5.61 41.99 5.16 41.7C4.72 41.41 4.24 41.26 3.7 41.26C3.45 41.26 3.18 41.32 2.89 41.43C2.61 41.53 2.34 41.67 2.08 41.86C1.83 42.03 1.61 42.24 1.44 42.47C1.27 42.7 1.17 42.94 1.15 43.2L1.15 45.58C1.3 45.93 1.52 46.25 1.79 46.55Q2.13 46.91 2.55 47.15Q2.63 47.2 2.72 47.25C3.07 47.41 3.44 47.5 3.82 47.5ZM92.89 47.5C93.44 47.5 93.91 47.37 94.31 47.11Q94.48 46.99 94.63 46.86Q95.02 46.5 95.26 46C95.49 45.52 95.61 44.99 95.61 44.38C95.61 43.75 95.49 43.19 95.24 42.73C95.01 42.26 94.69 41.9 94.28 41.65C93.87 41.39 93.41 41.26 92.89 41.26C92.37 41.26 91.91 41.39 91.51 41.66C91.12 41.92 90.81 42.29 90.59 42.76C90.36 43.23 90.25 43.77 90.25 44.38C90.25 45.02 90.36 45.57 90.59 46.04C90.82 46.5 91.13 46.86 91.52 47.12C91.92 47.37 92.38 47.5 92.89 47.5ZM106.6 44.41C106.6 44.98 106.72 45.5 106.98 45.97C107.24 46.43 107.58 46.8 108.01 47.08C108.43 47.36 108.91 47.5 109.43 47.5C109.95 47.5 110.42 47.36 110.85 47.08C111.29 46.79 111.63 46.41 111.88 45.94C112.14 45.47 112.27 44.94 112.27 44.37C112.27 43.81 112.14 43.29 111.88 42.82C111.63 42.34 111.29 41.97 110.85 41.69C110.42 41.4 109.95 41.26 109.44 41.26C108.92 41.26 108.45 41.4 108.02 41.69C107.59 41.98 107.25 42.36 106.99 42.84C106.73 43.32 106.6 43.84 106.6 44.41ZM101.25 47.5C102.14 47.5 102.83 47.24 103.3 46.73C103.78 46.21 104.03 45.52 104.03 44.66C104.03 43.83 103.79 43.15 103.31 42.62C102.85 42.09 102.16 41.83 101.25 41.83C100.73 41.83 100.26 41.94 99.84 42.16C99.42 42.38 99.09 42.69 98.84 43.12Q98.47 43.75 98.47 44.66C98.47 45.2 98.58 45.69 98.8 46.12C99.01 46.55 99.32 46.88 99.73 47.13C100.14 47.37 100.65 47.5 101.25 47.5ZM48.33 47.41L50.11 47.41C50.51 47.41 50.84 47.33 51.1 47.16C51.36 47 51.54 46.78 51.65 46.51C51.77 46.24 51.83 45.95 51.83 45.65C51.83 45.35 51.78 45.07 51.68 44.82C51.58 44.56 51.4 44.35 51.14 44.19C50.88 44.03 50.52 43.95 50.08 43.95L48.33 43.95L48.33 47.41ZM72.84 46.5C73.03 46.26 73.12 46.05 73.12 45.84L73.12 44.65C72.45 44.39 71.73 44.26 70.96 44.26C70.22 44.26 69.63 44.41 69.19 44.7C68.74 44.99 68.52 45.38 68.52 45.86C68.52 46.16 68.6 46.44 68.75 46.7C68.91 46.96 69.13 47.17 69.41 47.33C69.7 47.49 70.03 47.56 70.4 47.56Q71.16 47.56 71.8 47.29Q71.82 47.28 71.84 47.27C72.27 47.07 72.61 46.81 72.84 46.5ZM160.85 46.5C161.03 46.26 161.12 46.05 161.12 45.84L161.12 44.65C160.46 44.39 159.73 44.26 158.96 44.26C158.23 44.26 157.64 44.41 157.19 44.7C156.75 44.99 156.52 45.38 156.52 45.86C156.52 46.16 156.6 46.44 156.76 46.7C156.92 46.96 157.14 47.17 157.41 47.33C157.7 47.49 158.03 47.56 158.41 47.56C158.92 47.56 159.4 47.47 159.84 47.27C160.28 47.07 160.61 46.81 160.85 46.5Z" fill="#343434" fill-opacity="1.000000" fill-rule="evenodd"/>
</svg>
