<svg width="23.000000" height="14.000000" viewBox="0 0 23 14" fill="none" xmlns="http://www.w3.org/2000/svg" xmlns:xlink="http://www.w3.org/1999/xlink">
	<desc>
			Created with Pixso.
	</desc>
	<defs/>
	<path id="vkontakte" d="M11.25 13.94L12.62 13.94C12.62 13.94 13.04 13.89 13.25 13.64C13.45 13.42 13.44 13 13.44 13C13.44 13 13.41 11.03 14.27 10.74C15.11 10.46 16.2 12.64 17.34 13.49C18.21 14.12 18.87 13.98 18.87 13.98L21.95 13.94C21.95 13.94 23.55 13.83 22.79 12.48C22.73 12.37 22.35 11.49 20.51 9.66C18.58 7.76 18.84 8.06 21.16 4.77C22.57 2.76 23.14 1.53 22.96 1C22.79 0.5 21.75 0.64 21.75 0.64L18.29 0.66C18.29 0.66 18.04 0.62 17.85 0.74C17.66 0.86 17.54 1.14 17.54 1.14C17.54 1.14 16.99 2.69 16.26 4.02C14.72 6.81 14.11 6.95 13.86 6.78C13.27 6.38 13.42 5.16 13.42 4.29C13.42 1.59 13.8 0.46 12.67 0.17C12.29 0.07 12.02 0.01 11.06 0C9.82 -0.02 8.78 0 8.19 0.31C7.79 0.52 7.49 0.97 7.67 1C7.9 1.03 8.42 1.15 8.69 1.55C9.05 2.06 9.04 3.22 9.04 3.22C9.04 3.22 9.24 6.4 8.56 6.8C8.09 7.07 7.45 6.51 6.08 3.98C5.38 2.69 4.85 1.25 4.85 1.25C4.85 1.25 4.74 0.99 4.56 0.84C4.34 0.67 4.03 0.61 4.03 0.61L0.74 0.64C0.74 0.64 0.25 0.65 0.07 0.88C-0.09 1.08 0.06 1.5 0.06 1.5C0.06 1.5 2.63 7.93 5.54 11.16C8.21 14.13 11.25 13.94 11.25 13.94Z" fill="#FFFCFA" fill-opacity="1.000000" fill-rule="evenodd"/>
</svg>
